#!OML:ASF F:\VICON\USERDATA\INSTALL\rory3\rory3.ASF
:FULLY-SPECIFIED
:DEGREES
37
root 0.44431349724071406 17.857761654680473 14.147637583513653 -3.8352964239339524 -0.9704209833033678 3.3442219809534284
lfemur -3.223968336144633 -4.3883533057505275 -26.985135093766143
ltibia 22.088513746103462
lfoot -10.412444218697637 -3.379297058086868
ltoes -2.3441462491771476
rfemur -20.374239803439146 1.0832710559290368 16.832812364912797
rtibia 66.91943843442048
rfoot -8.7516519172282 -3.291064405369833
rtoes 6.648478063411279
lowerback 1.0 0.4270053545992527 -2.4928100826644304
upperback 0.5019278425694866 0.1400677958056561 0.4010906805724155
thorax -5.075879485307857 0.16662487622194774 1.7033035094945412
lowerneck -16.05860747265509 -3.0086509941912674 -1.4664188682090582
upperneck 22.93019191979585 -3.9582399228845833 0.7016265768791204
head 10.213912385591403 -1.899454646228839 0.002643959462808626
lclavicle -1.8260528138649834e-15 -1.3180011128211558e-16
lhumerus -24.72349062509077 -1.2730702273521421 81.10994151201912
lradius 30.14501877547807
lwrist 3.403047220925154
lhand -27.40040414124721 25.817609600866586
lfingers nan
lthumb -0.6373959109171714 55.995375557463774
rclavicle -1.8821192876306863e-15 -1.8096724666992638e-16
rhumerus -27.50840434302544 -19.14843711700278 -80.10506230457017
rradius 24.852685249161084
rwrist 4.349954716551487
rhand -18.111368379978448 1.0
rfingers nan
rthumb 8.50732165867612 -7.566905591517239
38
root 0.43951727710634636 17.84294335306896 15.292341987571088 -3.491303456301521 -0.5750721178311432 0.8884106312342808
lfemur -1.008538522972458 -4.695990225721285 -24.882530839740255
ltibia 22.349859365637613
lfoot -11.842611510387366 -2.438394307913701
ltoes -2.0906924813435834
rfemur -23.02089670980311 0.8895605453364879 19.026521973296965
rtibia 65.59582125077775
rfoot -8.503026214616964 -3.2642434952136226
rtoes 6.067028692335909
lowerback 1.0 0.30407555896902294 -0.7567418669840742
upperback 0.348605733107615 0.19243547563506957 0.9561871265090024
thorax -5.304565803287073 0.16085389701825492 1.7931566826547705
lowerneck -16.19361258844544 -2.907641007344882 -1.5475051653788698
upperneck 23.06754172042388 -3.742807327546581 0.6147187645575243
head 10.25764353218816 -1.8288287238372907 0.019537321699920007
lclavicle -1.8527890062100058e-15 -1.5115751944477919e-16
lhumerus -23.709267902605323 -1.5821741664592368 80.7713941558094
lradius 31.048428783728415
lwrist 3.9886652569854615
lhand -27.288927534770053 25.342487350305895
lfingers nan
lthumb -0.5898454334661141 55.38856347662365
rclavicle -1.8831716414268962e-15 -1.725638806887542e-16
rhumerus -28.491295684181562 -21.028197516534213 -81.08291854498415
rradius 23.826225353708487
rwrist 5.279543790267208
rhand -18.11108128975417 1.0
rfingers nan
rthumb 8.46594565532658 -7.527460180440149
39
root 0.42642071112484464 17.831173116669003 16.765086593502573 -3.4902026380505644 -0.72907726588187 0.613537778404698
lfemur 1.1137042915769584 -4.535908022827579 -24.420087636955333
ltibia 22.695431197046517
lfoot -11.25149863501276 -1.8084486549065009
ltoes -3.240384109040372
rfemur -24.755337282457468 1.4098229423674251 19.2473633898895
rtibia 63.186105349055524
rfoot -7.942308351233918 -3.2344152765905374
rtoes 6.080743205782491
lowerback 1.0 0.20137219082604885 -0.7996146299380409
upperback 0.3689677527503221 0.14096663445098384 1.1495362485774452
thorax -5.354770414722241 0.1372714002351079 2.117760502235676
lowerneck -16.346999235809246 -2.8302395409330785 -1.6319069189614024
upperneck 22.957500719972124 -3.5707960639998775 0.5034432111751073
head 10.190846064611996 -1.7738016116601631 0.015167150706058757
lclavicle -1.8401052731793768e-15 -1.3817537016146354e-16
lhumerus -23.361857346701047 -1.5613245893956975 80.54245389791939
lradius 31.96992346161295
lwrist 3.8401932449390483
lhand -27.215759321042466 24.36192830810911
lfingers nan
lthumb -0.536093589331798 54.39918582159503
rclavicle -1.88413733720007e-15 -1.7068372018741221e-16
rhumerus -29.705637637133428 -22.65470442275774 -81.70915119937776
rradius 23.36375038470336
rwrist 5.478997497753271
rhand -18.091660709948012 1.0
rfingers nan
rthumb 8.48386342708927 -7.239697792281059
40
root 0.43169484639443256 17.83756525443376 18.516979794993986 -3.3997046363378427 -0.9089156927079016 0.48308078890752304
lfemur 2.9099821659449514 -4.260382008987486 -24.099061850665983
ltibia 22.940827407151666
lfoot -10.337471176588814 -2.8522706606751815
ltoes -5.5837345174631965
rfemur -25.614475251393053 1.9022038245072075 19.282125831503855
rtibia 59.71859570104456
rfoot -7.222479521781255 -2.9355282092642896
rtoes 6.973319206137477
lowerback 1.0 0.016977233275309256 -1.0005830993661273
upperback 0.4044663759829246 -0.04840930798775278 1.2231743088576545
thorax -5.399702490221611 0.01752998316572174 2.3440599744624886
lowerneck -16.390968341797233 -2.7486711674446367 -1.7302907849948495
upperneck 23.068949231745083 -3.3708096635258427 0.36827861928766625
head 10.213599328708383 -1.7033231382015328 0.010848341915320747
lclavicle -1.8575907731344683e-15 -1.512651625378251e-16
lhumerus -23.377440286417745 -1.4871626364254311 80.44933831380101
lradius 32.47479390648193
lwrist 3.446184382361635
lhand -27.256890751985175 23.877978168932632
lfingers nan
lthumb -0.5314999097428733 53.98294175166533
rclavicle -1.889691647668319e-15 -1.7107250401022927e-16
rhumerus -31.049757163767534 -23.888226318865367 -81.89129911067315
rradius 23.53220295989132
rwrist 4.499404891916474
rhand -18.10249590866657 1.0
rfingers nan
rthumb 8.463216363606442 -7.2415272874816115
41
root 0.4560705988271248 17.8513536053337 19.88460897902322 -3.407718897930763 -0.8756529853183338 0.8068095157229433
lfemur 5.147325731205445 -4.005066830039253 -24.260655684242543
ltibia 22.7883982897907
lfoot -5.562190074952198 -1.0006423358538594
ltoes -9.520155690796658
rfemur -26.073478814638875 1.9407658479858139 18.7655429345998
rtibia 55.81152915193202
rfoot -6.6714338277853695 -2.394295425494538
rtoes 8.290694830922865
lowerback 1.0 -0.11900998200575147 -1.3791849833457812
upperback 0.5954074041016323 -0.41693214771583276 1.4663671482926928
thorax -5.239665123153643 -0.13035424897511133 2.7271613110077952
lowerneck -16.372213191934655 -2.6956411410757575 -1.8266262201145362
upperneck 23.134669440162718 -3.2371505100493376 0.2814028221475346
head 10.198865907453786 -1.6621065155372283 0.01704912853733026
lclavicle -1.8576989088510103e-15 -1.5021944790024712e-16
lhumerus -23.6054067500073 -1.4971543407187102 80.4845842194193
lradius 32.32551997363066
lwrist 3.257982854428445
lhand -27.39809240294516 23.603279228223954
lfingers nan
lthumb -0.5810062443745445 53.82765628450196
rclavicle -1.8919087616125964e-15 -1.7020017362525339e-16
rhumerus -32.37318646466886 -24.65164157517151 -81.67100483767952
rradius 24.212695723263877
rwrist 2.5654109396280744
rhand -18.032535879979022 1.0
rfingers nan
rthumb 8.53496613443242 -7.163357179877538
